<svg width="18" height="16" viewBox="0 0 18 16" fill="none" xmlns="http://www.w3.org/2000/svg">
<path d="M0.666687 1.20312C0.666687 0.813477 0.978941 0.5 1.36707 0.5H2.69488C3.3369 0.5 3.90596 0.875 4.17152 1.4375H16.1656C16.9331 1.4375 17.4934 2.16992 17.292 2.91406L16.0956 7.37598C15.8475 8.2959 15.0158 8.9375 14.0674 8.9375H5.64817L5.80575 9.77246C5.86996 10.1035 6.15886 10.3438 6.49446 10.3438H14.9078C15.296 10.3438 15.6082 10.6572 15.6082 11.0469C15.6082 11.4365 15.296 11.75 14.9078 11.75H6.49446C5.48474 11.75 4.61802 11.0293 4.43125 10.0361L2.92542 2.09668C2.905 1.98535 2.80869 1.90625 2.69488 1.90625H1.36707C0.978941 1.90625 0.666687 1.59277 0.666687 1.20312ZM4.40207 14.0938C4.40207 13.9091 4.4383 13.7262 4.50869 13.5556C4.57909 13.385 4.68227 13.23 4.81234 13.0994C4.94242 12.9688 5.09684 12.8652 5.26678 12.7945C5.43673 12.7239 5.61888 12.6875 5.80283 12.6875C5.98679 12.6875 6.16894 12.7239 6.33889 12.7945C6.50883 12.8652 6.66325 12.9688 6.79333 13.0994C6.9234 13.23 7.02658 13.385 7.09698 13.5556C7.16737 13.7262 7.2036 13.9091 7.2036 14.0938C7.2036 14.2784 7.16737 14.4613 7.09698 14.6319C7.02658 14.8025 6.9234 14.9575 6.79333 15.0881C6.66325 15.2187 6.50883 15.3223 6.33889 15.393C6.16894 15.4636 5.98679 15.5 5.80283 15.5C5.61888 15.5 5.43673 15.4636 5.26678 15.393C5.09684 15.3223 4.94242 15.2187 4.81234 15.0881C4.68227 14.9575 4.57909 14.8025 4.50869 14.6319C4.4383 14.4613 4.40207 14.2784 4.40207 14.0938ZM14.2074 12.6875C14.5789 12.6875 14.9352 12.8357 15.1979 13.0994C15.4606 13.3631 15.6082 13.7208 15.6082 14.0938C15.6082 14.4667 15.4606 14.8244 15.1979 15.0881C14.9352 15.3518 14.5789 15.5 14.2074 15.5C13.8359 15.5 13.4796 15.3518 13.2169 15.0881C12.9543 14.8244 12.8067 14.4667 12.8067 14.0938C12.8067 13.7208 12.9543 13.3631 13.2169 13.0994C13.4796 12.8357 13.8359 12.6875 14.2074 12.6875ZM8.02072 5.1875C8.02072 5.50977 8.28336 5.77344 8.60437 5.77344H9.88841V7.0625C9.88841 7.38477 10.1511 7.64844 10.4721 7.64844C10.7931 7.64844 11.0557 7.38477 11.0557 7.0625V5.77344H12.3398C12.6608 5.77344 12.9234 5.50977 12.9234 5.1875C12.9234 4.86523 12.6608 4.60156 12.3398 4.60156H11.0557V3.3125C11.0557 2.99023 10.7931 2.72656 10.4721 2.72656C10.1511 2.72656 9.88841 2.99023 9.88841 3.3125V4.60156H8.60437C8.28336 4.60156 8.02072 4.86523 8.02072 5.1875Z" fill="#637381"/>
</svg>
